<svg version="1.1" id="Layer_1" xmlns="http://www.w3.org/2000/svg" xmlns:xlink="http://www.w3.org/1999/xlink" x="0px" y="0px"
	 width="100%" viewBox="0 0 578 413" enable-background="new 0 0 578 413" xml:space="preserve">
<path fill="#0A192F" opacity="1.000000" stroke="none" 
	d="
M363.000000,414.000000 
	C242.000031,414.000000 121.500061,414.000000 1.000065,414.000000 
	C1.000043,276.333405 1.000043,138.666794 1.000022,1.000139 
	C193.666565,1.000092 386.333130,1.000092 578.999756,1.000046 
	C578.999878,138.666519 578.999878,276.333038 578.999939,413.999786 
	C507.166656,414.000000 435.333344,414.000000 363.000000,414.000000 
M262.287994,225.788025 
	C262.279846,229.286972 262.048553,232.807709 262.387115,236.272781 
	C262.502319,237.451904 264.052490,238.490799 264.946960,239.593765 
	C265.630768,239.448303 266.314545,239.302826 266.998352,239.157349 
	C264.079834,225.110611 266.866882,213.578979 280.635986,206.443237 
	C280.635986,217.390472 280.635986,228.131073 280.635986,238.689240 
	C284.191711,239.861298 284.855133,238.456665 284.823059,235.647919 
	C284.708893,225.651245 284.765045,215.652435 284.792603,205.654541 
	C284.797394,203.915146 284.976196,202.176254 285.074646,200.437119 
	C285.647064,200.079041 286.219482,199.720978 286.791901,199.362900 
	C287.674194,200.724960 288.369019,202.265167 289.467896,203.421371 
	C299.912598,214.410873 310.357544,225.402435 320.992310,236.206497 
	C322.607239,237.847153 325.195099,238.530136 327.332947,239.656067 
	C327.593842,239.173676 327.854706,238.691269 328.115601,238.208878 
	C315.046844,224.491806 301.978088,210.774719 288.123871,196.233200 
	C290.051819,194.757126 291.789337,193.708221 293.185303,192.316666 
	C322.570587,163.024506 351.932922,133.709213 381.219635,104.318573 
	C382.504883,103.028778 383.028748,100.980339 383.907288,99.285278 
	C382.201599,100.233910 380.192017,100.867920 378.835480,102.178070 
	C355.985138,124.247009 333.323517,146.512375 310.369965,168.472778 
	C302.508209,175.994385 293.960449,182.798965 284.637848,190.873734 
	C284.637848,182.237823 284.738037,174.990799 284.538696,167.752014 
	C284.505646,166.552521 283.164062,165.389038 282.427185,164.208939 
	C281.828705,165.348373 280.734283,166.478088 280.711731,167.628799 
	C280.558350,175.457535 279.779449,183.406830 280.828186,191.095444 
	C282.431854,202.852402 273.108063,206.643555 267.538086,213.253220 
	C267.134949,213.106796 266.731842,212.960373 266.328735,212.813950 
	C266.328735,196.731003 266.328735,180.648056 266.328735,164.772949 
	C262.205811,163.172623 260.546478,164.943542 259.022858,168.111191 
	C249.782059,187.323196 240.359344,206.447739 230.989487,225.597610 
	C230.007492,227.604568 228.973846,229.586243 227.634506,232.230530 
	C226.465424,229.932220 225.695679,228.470932 224.971512,226.987381 
	C215.401581,207.382095 205.767303,187.807587 196.339874,168.133987 
	C194.693802,164.698883 192.875000,163.117188 189.022156,164.833588 
	C189.022156,189.509476 189.022156,214.123703 189.022156,238.727005 
	C193.335678,240.099976 192.625183,237.123978 192.627563,234.922470 
	C192.647842,216.092987 192.632339,197.263458 192.652298,178.433960 
	C192.654053,176.777847 192.832001,175.121948 192.928116,173.465942 
	C193.357635,173.424301 193.787140,173.382660 194.216660,173.341019 
	C205.094131,195.686005 215.971603,218.030991 227.325943,241.355591 
	C238.911026,217.709381 249.955688,195.166245 261.000336,172.623108 
	C261.420013,172.749954 261.839691,172.876785 262.259369,173.003616 
	C262.259369,186.594055 262.159576,200.185715 262.328827,213.774033 
	C262.371643,217.210495 261.352234,219.648346 258.901611,222.083847 
	C228.999435,251.801758 199.196381,281.619415 169.383453,311.427002 
	C166.208694,314.601227 163.133789,317.875366 159.500565,321.277130 
	C159.664322,322.204254 159.828094,323.131378 160.671997,324.340149 
	C162.035492,323.141083 163.469330,322.012543 164.751923,320.732422 
	C184.530472,300.992371 204.306503,281.249695 224.046570,261.471130 
	C236.378189,249.115479 248.648621,236.698776 261.783356,224.363708 
	C262.009888,224.527481 262.236389,224.691269 262.287994,225.788025 
M371.557465,225.093353 
	C381.152740,211.289169 381.690033,193.911987 372.935730,180.517136 
	C365.070740,168.483047 351.184509,162.161819 338.228088,164.809250 
	C338.228088,189.475571 338.228088,214.169296 338.228088,238.831329 
	C352.254852,240.250809 361.965179,236.319565 371.557465,225.093353 
z"/>
<path fill="#E1E3E6" opacity="1.000000" stroke="none" 
	d="
M160.012558,321.103119 
	C163.133789,317.875366 166.208694,314.601227 169.383453,311.427002 
	C199.196381,281.619415 228.999435,251.801758 258.901611,222.083847 
	C261.352234,219.648346 262.371643,217.210495 262.328827,213.774033 
	C262.159576,200.185715 262.259369,186.594055 262.259369,173.003616 
	C261.839691,172.876785 261.420013,172.749954 261.000336,172.623108 
	C249.955688,195.166245 238.911026,217.709381 227.325943,241.355591 
	C215.971603,218.030991 205.094131,195.686005 194.216660,173.341019 
	C193.787140,173.382660 193.357635,173.424301 192.928116,173.465942 
	C192.832001,175.121948 192.654053,176.777847 192.652298,178.433960 
	C192.632339,197.263458 192.647842,216.092987 192.627563,234.922470 
	C192.625183,237.123978 193.335678,240.099976 189.022156,238.727005 
	C189.022156,214.123703 189.022156,189.509476 189.022156,164.833588 
	C192.875000,163.117188 194.693802,164.698883 196.339874,168.133987 
	C205.767303,187.807587 215.401581,207.382095 224.971512,226.987381 
	C225.695679,228.470932 226.465424,229.932220 227.634506,232.230530 
	C228.973846,229.586243 230.007492,227.604568 230.989487,225.597610 
	C240.359344,206.447739 249.782059,187.323196 259.022858,168.111191 
	C260.546478,164.943542 262.205811,163.172623 266.328735,164.772949 
	C266.328735,180.648056 266.328735,196.731003 266.328735,212.813950 
	C266.731842,212.960373 267.134949,213.106796 267.538086,213.253220 
	C273.108063,206.643555 282.431854,202.852402 280.828186,191.095444 
	C279.779449,183.406830 280.558350,175.457535 280.711731,167.628799 
	C280.734283,166.478088 281.828705,165.348373 282.427185,164.208923 
	C283.164062,165.389038 284.505646,166.552521 284.538696,167.752014 
	C284.738037,174.990799 284.637848,182.237823 284.637848,190.873734 
	C293.960449,182.798965 302.508209,175.994385 310.369965,168.472778 
	C333.323517,146.512375 355.985138,124.247009 378.835480,102.178070 
	C380.192017,100.867920 382.201599,100.233910 383.907288,99.285278 
	C383.028748,100.980339 382.504883,103.028778 381.219635,104.318573 
	C351.932922,133.709213 322.570587,163.024506 293.185303,192.316666 
	C291.789337,193.708221 290.051819,194.757126 288.123871,196.233200 
	C301.978088,210.774719 315.046844,224.491806 328.115601,238.208878 
	C327.854706,238.691269 327.593842,239.173676 327.332947,239.656067 
	C325.195099,238.530136 322.607239,237.847153 320.992310,236.206497 
	C310.357544,225.402435 299.912598,214.410873 289.467896,203.421371 
	C288.369019,202.265167 287.674194,200.724960 286.791901,199.362900 
	C286.219482,199.720978 285.647064,200.079041 285.074646,200.437119 
	C284.976196,202.176254 284.797394,203.915146 284.792603,205.654541 
	C284.765045,215.652435 284.708893,225.651245 284.823059,235.647919 
	C284.855133,238.456665 284.191711,239.861298 280.635986,238.689240 
	C280.635986,228.131073 280.635986,217.390472 280.635986,206.443237 
	C266.866882,213.578979 264.079834,225.110611 266.998352,239.157349 
	C266.314545,239.302826 265.630768,239.448303 264.946960,239.593765 
	C264.052490,238.490799 262.502319,237.451904 262.387115,236.272781 
	C262.048553,232.807709 262.279846,229.286972 262.498169,225.135056 
	C262.552368,224.112564 262.396423,223.743042 262.240448,223.373520 
	C261.809113,223.685486 261.377808,223.997452 260.946472,224.309448 
	C248.648621,236.698776 236.378189,249.115479 224.046570,261.471130 
	C204.306503,281.249695 184.530472,300.992371 164.751923,320.732422 
	C163.469330,322.012543 162.035492,323.141083 160.336731,323.829834 
	C160.005157,322.580719 160.008865,321.841919 160.012558,321.103119 
z"/>
<path fill="#DDDFE2" opacity="1.000000" stroke="none" 
	d="
M371.346863,225.376892 
	C361.965179,236.319565 352.254852,240.250809 338.228088,238.831329 
	C338.228088,214.169296 338.228088,189.475571 338.228088,164.809250 
	C351.184509,162.161819 365.070740,168.483047 372.935730,180.517136 
	C381.690033,193.911987 381.152740,211.289169 371.346863,225.376892 
M372.221039,187.623978 
	C365.846313,174.298279 355.070038,167.168060 342.165039,167.818863 
	C342.165039,190.491669 342.165039,213.168594 342.165039,235.965118 
	C353.526398,235.557266 362.504883,231.307404 368.799255,222.114716 
	C376.029114,211.555725 376.694916,200.181519 372.221039,187.623978 
z"/>
<path fill="#D0D3D7" opacity="1.000000" stroke="none" 
	d="
M159.756561,321.190125 
	C160.008865,321.841919 160.005157,322.580719 159.996658,323.689026 
	C159.828094,323.131378 159.664322,322.204254 159.756561,321.190125 
z"/>
<path fill="#D0D3D7" opacity="1.000000" stroke="none" 
	d="
M261.364929,224.336578 
	C261.377808,223.997452 261.809113,223.685486 262.240448,223.373520 
	C262.396423,223.743042 262.552368,224.112564 262.585632,224.668564 
	C262.236389,224.691269 262.009888,224.527481 261.364929,224.336578 
z"/>
<path fill="#0D1C31" opacity="1.000000" stroke="none" 
	d="
M372.404602,187.967758 
	C376.694916,200.181519 376.029114,211.555725 368.799255,222.114716 
	C362.504883,231.307404 353.526398,235.557266 342.165039,235.965118 
	C342.165039,213.168594 342.165039,190.491669 342.165039,167.818863 
	C355.070038,167.168060 365.846313,174.298279 372.404602,187.967758 
z"/>
</svg>